<svg width="100" height="21" viewBox="0 0 100 21" fill="none" xmlns="http://www.w3.org/2000/svg">
<path d="M6.22638 8.95573L10.0917 5.01915L13.9586 8.95893L16.2064 6.66713L10.0917 0.435547L3.97699 6.66553L6.22638 8.95573Z" fill="white"/>
<path d="M0.13916 10.5744L2.38773 8.28347L4.63631 10.5744L2.38773 12.8654L0.13916 10.5744Z" fill="white"/>
<path d="M6.22638 12.1924L10.0917 16.1306L13.9586 12.1908L16.208 14.4794L10.0917 20.7126L3.97384 14.481L6.22638 12.1924Z" fill="white"/>
<path d="M15.543 10.575L17.7916 8.28403L20.0402 10.575L17.7916 12.866L15.543 10.575Z" fill="white"/>
<path d="M12.3725 10.5733L10.0917 8.24785L8.40504 9.9663L8.21013 10.1633L7.80772 10.5733L7.81086 10.5781L10.0917 12.9003L12.3741 10.5733H12.3725Z" fill="white"/>
<path d="M23.5485 5.34907H28.4403C29.6538 5.34907 30.5718 5.66937 31.1943 6.30999C31.4288 6.54663 31.6137 6.82935 31.7377 7.14099C31.8617 7.45264 31.9223 7.78671 31.9158 8.12293V8.15336C31.92 8.4288 31.8823 8.70324 31.8042 8.96694C31.7345 9.19395 31.6334 9.40967 31.5039 9.60756C31.3832 9.79416 31.2371 9.9624 31.0701 10.1072C30.9069 10.2504 30.7281 10.374 30.5372 10.4756C31.0876 10.6709 31.5826 11.0009 31.9786 11.4365C32.3287 11.8422 32.5037 12.4028 32.5037 13.1181V13.1486C32.5136 13.5953 32.4182 14.038 32.2254 14.4394C32.0387 14.8092 31.7648 15.1262 31.4285 15.3619C31.0482 15.6216 30.6248 15.8089 30.1788 15.9144C29.649 16.0424 29.1058 16.1043 28.5613 16.0986H23.5485V5.34907ZM27.9499 9.69564C28.3731 9.71648 28.7943 9.6237 29.1712 9.42658C29.3182 9.3391 29.4383 9.21141 29.5177 9.058C29.5972 8.90459 29.6329 8.73157 29.6208 8.55855V8.52812C29.6286 8.3687 29.5968 8.20985 29.5284 8.06625C29.46 7.92265 29.3571 7.79893 29.2294 7.70653C28.9684 7.51755 28.5917 7.42306 28.0992 7.42306H25.8105V9.69564H27.9499ZM28.5676 14.0278C28.9893 14.0519 29.409 13.9536 29.778 13.7443C29.9217 13.6502 30.0381 13.5186 30.115 13.3631C30.1918 13.2076 30.2263 13.034 30.215 12.8603V12.8299C30.2206 12.6648 30.1865 12.5007 30.1155 12.3522C30.0445 12.2037 29.9389 12.0751 29.8078 11.9778C29.5375 11.7643 29.1005 11.6575 28.4969 11.6575H25.8105V14.0278H28.5676Z" fill="white"/>
<path d="M35.418 5.34907H37.7397V16.1018H35.418V5.34907Z" fill="white"/>
<path d="M41.2529 5.34907H43.3938L48.3422 11.9666V5.34907H50.634V16.1018H48.6581L43.5479 9.26643V16.1018H41.2529V5.34907Z" fill="white"/>
<path d="M57.6636 5.27219H59.8014L64.3237 16.1018H61.8999L60.9347 13.6899H56.4721L55.5069 16.1018H53.1396L57.6636 5.27219ZM60.1063 11.6015L58.701 8.11332L57.302 11.6015H60.1063Z" fill="white"/>
<path d="M66.8341 5.34907H68.975L73.9202 11.9666V5.34907H76.2121V16.1018H74.2362L69.1259 9.26643V16.1018H66.8341V5.34907Z" fill="white"/>
<path d="M84.5683 16.2908C83.8284 16.2972 83.0948 16.1512 82.4117 15.8616C81.7685 15.591 81.185 15.192 80.6956 14.6881C80.2061 14.1842 79.8206 13.5856 79.5618 12.9275C79.2887 12.2392 79.1504 11.5031 79.1547 10.7607V10.7302C79.1425 9.26679 79.6952 7.85707 80.6936 6.80487C81.1848 6.29089 81.7729 5.88341 82.4227 5.60691C83.1294 5.30865 83.8883 5.1599 84.6532 5.16969C85.1056 5.16626 85.5573 5.20755 86.0019 5.29301C86.3823 5.36631 86.7542 5.47955 87.1117 5.63094C87.4361 5.77005 87.7444 5.94514 88.0312 6.15304C88.3111 6.3558 88.574 6.58186 88.8172 6.82889L87.3411 8.56496C86.964 8.21044 86.5409 7.91029 86.0836 7.6729C85.6345 7.45407 85.1416 7.34443 84.6438 7.35259C84.2295 7.34809 83.819 7.43344 83.4396 7.60298C83.0601 7.77252 82.7205 8.02237 82.4431 8.33594C82.1681 8.6487 81.9527 9.01096 81.808 9.40416C81.6566 9.81969 81.5804 10.2598 81.5833 10.703V10.7334C81.5818 11.176 81.6579 11.6154 81.808 12.0307C81.9509 12.4253 82.164 12.7896 82.4368 13.1053C82.712 13.4228 83.0508 13.6763 83.4305 13.8487C83.8102 14.0211 84.2218 14.1084 84.6375 14.1047C85.1668 14.1217 85.6921 14.0056 86.1669 13.7668C86.619 13.5157 87.037 13.2056 87.4103 12.8443L88.8879 14.3657C88.627 14.6542 88.3448 14.9219 88.0438 15.1665C87.748 15.4047 87.4269 15.6083 87.0865 15.7735C86.7237 15.9475 86.3416 16.076 85.9484 16.1562C85.4941 16.249 85.0317 16.2941 84.5683 16.2908Z" fill="white"/>
<path d="M91.6277 5.34907H99.5706V7.45349H93.9117V9.63478L98.8947 9.63478V11.7392L93.9196 11.7392V13.9974L99.6492 13.9974V16.1018L91.6325 16.1018L91.6277 5.34907Z" fill="white"/>
</svg>
