<svg width="89" height="15" viewBox="0 0 89 15" fill="none" xmlns="http://www.w3.org/2000/svg">
<path d="M45.8783 11.2527V8.71543H50.6668V7.02746H45.8783V4.77683H51.2296V3.08887H43.6274V4.77683V12.9407H51.5056V11.2527H45.8783Z" fill="white"/>
<path d="M73.7384 12.9407V7.02746L70.6381 11.8153H69.7887L66.6884 7.02746V12.9407H64.4375V3.08887H66.4124L70.3514 9.27808L74.0145 3.08887H75.9893V12.9407H73.7384Z" fill="white"/>
<path d="M83.0289 2.81299C79.9286 2.81299 77.6777 5.06361 77.6777 7.87689C77.6777 10.9768 79.9286 13.2274 83.0289 13.2274C85.8426 13.2274 88.3802 10.9768 88.3802 7.87689C88.3802 5.06361 85.8426 2.81299 83.0289 2.81299ZM83.0289 4.78759C84.7171 4.78759 86.4053 6.19954 86.4053 7.88751C86.4053 9.86211 84.7171 11.2634 83.0289 11.2634C81.0541 11.2634 79.6526 9.8515 79.6526 7.88751C79.6526 6.18892 81.0647 4.78759 83.0289 4.78759Z" fill="white"/>
<path d="M63.0468 3.09961H60.5092L57.9716 6.19953L56.5595 7.8875L52.8965 12.9514H55.4341L57.9716 9.85148L60.5092 12.9514H63.0468L59.3838 7.8875L63.0468 3.09961Z" fill="white"/>
<path d="M57.1325 5.06347L55.4443 3.08887H52.9067L56.007 6.75144L57.1325 5.06347Z" fill="white"/>
<path d="M19.9821 3.09991H6.75272L5.90332 1.68797L6.75272 0H19.9821L19.1327 1.68797L19.9821 3.09991Z" fill="white"/>
<path d="M17.4551 12.9411L25.0572 0H26.7454L27.3081 1.68797L19.9927 14.353L19.1433 12.9411H17.4551Z" fill="white"/>
<path d="M29.5591 12.9411L37.1612 0H38.5733L39.4227 1.68797L32.1073 14.353L31.2579 12.9411H29.5591Z" fill="white"/>
<path d="M31.2474 5.35091L26.7456 12.9521H25.0574L24.208 11.5401L28.7098 3.93896L29.5592 5.35091H31.2474Z" fill="white"/>
<path d="M14.0788 12.9408H0.849399L0 11.5289L0.849399 10.1169H14.0788L13.2294 11.5289L14.0788 12.9408Z" fill="white"/>
<path d="M3.93896 5.06372H12.9426L13.5053 6.47567L12.9426 7.88762H3.93896L4.78836 6.47567L3.93896 5.06372Z" fill="white"/>
</svg>
