<svg width="55" height="14" viewBox="0 0 55 14" fill="none" xmlns="http://www.w3.org/2000/svg">
<path d="M8.92548 10.0731H5.3011V13.69H8.92548V10.0731Z" fill="white"/>
<path d="M5.29401 5.24576V8.8627H12.5499V5.24576H5.29401Z" fill="white"/>
<path d="M16.1813 0.418457H5.3011V4.03539H16.1813V0.418457Z" fill="white"/>
<path d="M4.08825 5.24576H0.463867V8.8627H4.08825V5.24576Z" fill="white"/>
<path d="M19.8057 13.69H22.6144V8.20443H28.0262V5.88987H22.6144V2.73301H28.6078V0.418457H19.8057V13.69Z" fill="white"/>
<path d="M29.9979 2.73301H34.0692V13.69H36.8495V2.73301H40.9207V0.418457H29.9979V2.73301Z" fill="white"/>
<path d="M45.3608 0.418457H42.169L46.2544 7.05777L42.091 13.6971H45.3111L48.0418 9.16706H48.1482L50.8789 13.6971H54.1132L49.9639 7.05777L54.0139 0.418457H50.8363L48.1411 4.9414H48.0347L45.3608 0.418457Z" fill="white"/>
</svg>
