<svg width="76" height="23" viewBox="0 0 76 23" fill="none" xmlns="http://www.w3.org/2000/svg">
<path d="M28.6765 12.1217H22.3578V6.57082C22.3578 6.11462 21.9886 5.74456 21.5334 5.74456H19.3943V21.0032C19.3943 21.4594 19.7635 21.8294 20.2187 21.8294H22.3578V14.7122H28.6796V21C28.6733 21.4562 29.0362 21.8326 29.4914 21.839H31.6432V6.57082C31.6432 6.11462 31.274 5.74456 30.8188 5.74456H28.6765V12.1217ZM41.2246 9.73547V17.3823C41.231 18.0778 40.8681 18.7254 40.2697 19.0827C38.5953 20.0525 36.8605 18.8371 36.8605 17.242V10.5617C36.8605 10.1055 36.4912 9.73547 36.036 9.73547H33.8969V17.5163C33.9033 20.0238 35.9278 22.0528 38.4298 22.0655H39.6458C42.1509 22.0591 44.1818 20.0238 44.1882 17.5131V10.5617C44.1882 10.1055 43.8189 9.73547 43.3637 9.73547H41.2246Z" fill="white"/>
<path d="M75.7272 21.8391V11.0052C75.7272 10.549 75.358 10.179 74.9028 10.179H72.7637V21.0065C72.7605 21.4627 73.1266 21.8359 73.5818 21.8391H75.7272Z" fill="white"/>
<path d="M75.7724 8.01163C76.1216 7.1668 75.7213 6.19823 74.8783 5.84828C74.0353 5.49833 73.0688 5.89952 72.7197 6.74435C72.3705 7.58919 72.7708 8.55774 73.6138 8.90769C74.4568 9.25764 75.4232 8.85646 75.7724 8.01163Z" fill="white"/>
<path d="M51.8342 9.7288C48.7306 9.7288 46.1904 11.9524 46.1904 15.0628V16.744C46.1904 19.8544 48.7306 22.0652 51.8342 22.0652C54.9378 22.0652 57.478 19.8544 57.478 16.744V15.0628C57.4812 11.9524 54.941 9.7288 51.8342 9.7288ZM54.5017 16.945C54.5017 18.4157 53.3017 19.395 51.831 19.395C50.3604 19.395 49.1635 18.4157 49.1635 16.945V14.8458C49.1635 13.3752 50.3636 12.3958 51.831 12.3958C53.2985 12.3958 54.5017 13.3752 54.5017 14.8458V16.945Z" fill="white"/>
<path d="M65.124 9.72838C64.1945 9.722 63.2778 9.93255 62.4406 10.3377V6.58606C62.4406 6.12986 62.0713 5.7598 61.6161 5.7598H59.477V16.7436C59.477 19.854 62.0172 22.0648 65.1208 22.0648C68.2245 22.0648 70.7646 19.854 70.7646 16.7436V15.0624C70.7678 11.9519 68.234 9.72838 65.124 9.72838ZM67.7947 16.9446C67.7947 18.4152 66.5947 19.3946 65.124 19.3946C63.6566 19.3946 62.4565 18.4152 62.4565 16.9446V14.8454C62.4565 13.3748 63.6566 12.3954 65.124 12.3954C66.5915 12.3954 67.7947 13.3748 67.7947 14.8454V16.9446Z" fill="white"/>
<path d="M10.4368 7.06466C10.4368 3.82344 8.86108 1.03203 7.66101 0.126019C7.66101 0.126019 7.5687 0.0749763 7.57825 0.205774C7.47957 6.4681 4.28683 8.16527 2.53289 10.4494C-1.51613 15.726 2.2464 21.5098 6.08533 22.5785C8.22444 23.1783 5.58875 21.5194 5.24815 18.0197C4.83115 13.7959 10.4368 10.5675 10.4368 7.06466Z" fill="white"/>
<path d="M12.2766 9.19858C12.2512 9.18263 12.2162 9.16987 12.1939 9.21134C12.127 9.99931 11.3249 11.6837 10.3062 13.2342C6.85248 18.4852 8.8197 21.0182 9.92745 22.3804C10.5705 23.1684 9.92745 22.3804 11.5318 21.5733C13.5149 20.3674 14.8009 18.281 14.9919 15.9649C15.307 12.2324 13.0724 9.88128 12.2766 9.19858Z" fill="white"/>
</svg>
