<svg width="57" height="24" viewBox="0 0 57 24" fill="none" xmlns="http://www.w3.org/2000/svg">
<path d="M17.0349 3.80982H1.09024C1.04147 3.80961 0.993197 3.81945 0.948412 3.83871C0.903626 3.85797 0.863311 3.88625 0.829975 3.92178C0.794974 3.95527 0.767303 3.99566 0.748763 4.04038C0.730222 4.08509 0.721193 4.13315 0.722249 4.18153V20.0885C0.721655 20.1371 0.730755 20.1853 0.748982 20.2304C0.767209 20.2755 0.794211 20.3165 0.828441 20.3511C0.862672 20.3857 0.903443 20.4131 0.948384 20.4318C0.993326 20.4506 1.04153 20.4602 1.09024 20.4602H17.0349C17.0836 20.4602 17.1318 20.4506 17.1767 20.4318C17.2217 20.4131 17.2624 20.3857 17.2967 20.3511C17.3309 20.3165 17.3579 20.2755 17.3762 20.2304C17.3944 20.1853 17.4035 20.1371 17.4029 20.0885V4.18601C17.4017 4.08855 17.3627 3.99535 17.2941 3.92601C17.2255 3.85668 17.1325 3.81662 17.0349 3.8143V3.80982ZM11.8427 14.5578C11.8422 14.6551 11.8036 14.7484 11.735 14.8175C11.7005 14.8528 11.6593 14.8808 11.6138 14.9001C11.5684 14.9193 11.5195 14.9293 11.4702 14.9295H6.65045C6.55281 14.9272 6.45987 14.8871 6.39122 14.8178C6.32258 14.7485 6.28359 14.6552 6.28246 14.5578V9.73017C6.28246 9.68195 6.29198 9.6342 6.31048 9.58965C6.32897 9.5451 6.35607 9.5046 6.39024 9.4705C6.42441 9.4364 6.46499 9.40936 6.50963 9.39091C6.55428 9.37245 6.60212 9.36295 6.65045 9.36295H11.4702C11.5189 9.36235 11.5672 9.37141 11.6124 9.3896C11.6576 9.40779 11.6986 9.43476 11.7333 9.46892C11.7679 9.50308 11.7955 9.54374 11.8142 9.58858C11.833 9.63343 11.8427 9.68157 11.8427 9.73017V14.5578Z" fill="white"/>
<path d="M50.4096 9.36294H45.6122C45.5142 9.36294 45.4202 9.40149 45.3505 9.47023C45.2807 9.53897 45.2409 9.63237 45.2398 9.73017V14.5399C45.2398 14.5887 45.2494 14.637 45.2681 14.6821C45.2868 14.7272 45.3143 14.7682 45.3489 14.8027C45.3835 14.8372 45.4245 14.8646 45.4697 14.8833C45.5149 14.902 45.5633 14.9116 45.6122 14.9116H50.432C50.53 14.9104 50.6236 14.8707 50.6925 14.8011C50.7614 14.7316 50.8 14.6377 50.8 14.5399V9.73017C50.8001 9.68 50.7899 9.63034 50.77 9.58426C50.7501 9.53818 50.721 9.49665 50.6844 9.46224C50.6478 9.42784 50.6045 9.40129 50.5573 9.38421C50.51 9.36713 50.4597 9.35988 50.4096 9.36294Z" fill="white"/>
<path d="M44.8449 3.80982H40.0251C39.9762 3.80982 39.9278 3.81945 39.8826 3.83813C39.8374 3.85681 39.7963 3.88417 39.7617 3.91869C39.7271 3.9532 39.6997 3.99418 39.681 4.03928C39.6623 4.08438 39.6526 4.13271 39.6526 4.18152V8.99123C39.6526 9.08982 39.6919 9.18437 39.7617 9.25407C39.8316 9.32378 39.9263 9.36294 40.0251 9.36294H44.8449C44.8936 9.36295 44.9418 9.3533 44.9867 9.33457C45.0317 9.31584 45.0724 9.28838 45.1067 9.2538C45.1409 9.21922 45.1679 9.17822 45.1861 9.13315C45.2044 9.08808 45.2134 9.03983 45.2128 8.99123V4.18601C45.214 4.13703 45.2054 4.08832 45.1875 4.04272C45.1695 3.99713 45.1426 3.9556 45.1083 3.92054C45.074 3.88549 45.033 3.85764 44.9878 3.83863C44.9425 3.81961 44.8939 3.8098 44.8449 3.80982Z" fill="white"/>
<path d="M55.9653 3.80982H51.1455C51.0475 3.81099 50.9539 3.85069 50.8851 3.92027C50.8162 3.98985 50.7775 4.08371 50.7775 4.18152V8.99123C50.7775 9.08904 50.8162 9.18294 50.8851 9.25252C50.9539 9.3221 51.0475 9.36176 51.1455 9.36294H55.9653C56.0641 9.36294 56.1588 9.32378 56.2287 9.25407C56.2985 9.18437 56.3377 9.08982 56.3377 8.99123V4.18601C56.3383 4.13682 56.3291 4.08801 56.3107 4.0424C56.2922 3.99678 56.2649 3.95526 56.2302 3.92027C56.1956 3.88528 56.1543 3.8575 56.1088 3.83854C56.0634 3.81958 56.0146 3.80981 55.9653 3.80982Z" fill="white"/>
<path d="M44.8449 14.934H40.0251C39.9271 14.934 39.833 14.9725 39.7633 15.0413C39.6936 15.11 39.6538 15.2034 39.6526 15.3012V20.1109C39.6526 20.2095 39.6919 20.304 39.7617 20.3738C39.8316 20.4435 39.9263 20.4826 40.0251 20.4826H44.8449C44.8936 20.4826 44.9418 20.473 44.9867 20.4542C45.0317 20.4355 45.0724 20.4081 45.1067 20.3735C45.1409 20.3389 45.1679 20.2979 45.1861 20.2528C45.2044 20.2078 45.2134 20.1595 45.2128 20.1109V15.2788C45.2071 15.1854 45.1658 15.0976 45.0974 15.0335C45.029 14.9694 44.9387 14.9338 44.8449 14.934Z" fill="white"/>
<path d="M55.9653 14.934H51.1455C51.0972 14.934 51.0493 14.9435 51.0047 14.9619C50.96 14.9804 50.9195 15.0074 50.8853 15.0415C50.8512 15.0756 50.8241 15.1161 50.8056 15.1607C50.7871 15.2052 50.7775 15.253 50.7775 15.3012V20.1109C50.7775 20.2087 50.8162 20.3026 50.8851 20.3722C50.9539 20.4417 51.0475 20.4814 51.1455 20.4826H55.9653C56.0641 20.4826 56.1588 20.4435 56.2287 20.3738C56.2985 20.304 56.3377 20.2095 56.3377 20.1109V15.2788C56.3309 15.185 56.2887 15.0972 56.2196 15.0332C56.1504 14.9692 56.0596 14.9337 55.9653 14.934Z" fill="white"/>
<path d="M36.4978 3.80981H31.7005C31.6516 3.80981 31.6032 3.81945 31.558 3.83813C31.5128 3.85681 31.4717 3.88417 31.4371 3.91868C31.4026 3.9532 31.3751 3.99418 31.3564 4.03928C31.3377 4.08437 31.328 4.13271 31.328 4.18152V8.99123C31.328 9.08981 31.3673 9.18436 31.4371 9.25407C31.507 9.32378 31.6017 9.36294 31.7005 9.36294H36.5203C36.6183 9.36176 36.7119 9.32209 36.7807 9.25251C36.8496 9.18293 36.8883 9.08904 36.8883 8.99123V4.186C36.8889 4.13527 36.8792 4.08493 36.8596 4.0381C36.8401 3.99127 36.8111 3.94892 36.7745 3.91368C36.738 3.87844 36.6945 3.85104 36.6469 3.83318C36.5994 3.81532 36.5486 3.80736 36.4978 3.80981Z" fill="white"/>
<path d="M36.4978 14.934H31.7005C31.6025 14.934 31.5085 14.9725 31.4387 15.0413C31.369 15.11 31.3292 15.2034 31.328 15.3012V20.1109C31.328 20.2095 31.3673 20.3041 31.4371 20.3738C31.507 20.4435 31.6017 20.4826 31.7005 20.4826H36.5203C36.6183 20.4815 36.7119 20.4418 36.7807 20.3722C36.8496 20.3026 36.8883 20.2087 36.8883 20.1109V15.2788C36.8854 15.2306 36.873 15.1833 36.8518 15.1399C36.8306 15.0964 36.8011 15.0575 36.7648 15.0255C36.7285 14.9935 36.6863 14.9689 36.6404 14.9532C36.5946 14.9375 36.5462 14.931 36.4978 14.934Z" fill="white"/>
<path d="M31.3056 9.72569C31.3056 9.67709 31.296 9.62898 31.2772 9.58413C31.2584 9.53928 31.2309 9.49859 31.1962 9.46444C31.1616 9.43028 31.1205 9.4033 31.0753 9.38511C31.0302 9.36692 30.9818 9.35787 30.9331 9.35846H25.7454V4.18601C25.745 4.0887 25.7063 3.99543 25.6377 3.92626C25.6032 3.89102 25.562 3.86299 25.5166 3.84377C25.4711 3.82455 25.4223 3.81452 25.373 3.8143H20.5532C20.5044 3.81409 20.4561 3.82393 20.4114 3.84319C20.3666 3.86246 20.3263 3.89074 20.2929 3.92626C20.2579 3.95975 20.2303 4.00015 20.2117 4.04486C20.1932 4.08957 20.1842 4.13763 20.1852 4.18601V20.084C20.1846 20.1326 20.1937 20.1809 20.2119 20.226C20.2302 20.271 20.2572 20.312 20.2914 20.3466C20.3256 20.3812 20.3664 20.4086 20.4113 20.4274C20.4563 20.4461 20.5045 20.4558 20.5532 20.4558H25.373C25.422 20.4564 25.4707 20.4471 25.5162 20.4287C25.5617 20.4102 25.6029 20.3829 25.6377 20.3482C25.6724 20.3136 25.6998 20.2724 25.7183 20.227C25.7368 20.1816 25.746 20.133 25.7454 20.084V14.9071H30.9331C30.9822 14.9077 31.0309 14.8985 31.0764 14.88C31.1218 14.8616 31.1632 14.8342 31.1979 14.7996C31.2326 14.7649 31.26 14.7237 31.2785 14.6784C31.297 14.633 31.3062 14.5844 31.3056 14.5354V9.72569Z" fill="white"/>
</svg>
